<svg width="14" height="14" viewBox="0 0 14 14" fill="none" xmlns="http://www.w3.org/2000/svg">
<g clip-path="url(#clip0_1_241)">
<path d="M7 0C3.15 0 0 3.15 0 7C0 10.85 3.15 14 7 14C10.85 14 14 10.85 14 7C14 3.15 10.85 0 7 0ZM7.875 10.5H6.125V6.125H7.875V10.5ZM7 5.25C6.475 5.25 6.125 4.9 6.125 4.375C6.125 3.85 6.475 3.5 7 3.5C7.525 3.5 7.875 3.85 7.875 4.375C7.875 4.9 7.525 5.25 7 5.25Z" fill="#1E60E1"/>
</g>
<defs>
<clipPath id="clip0_1_241">
<rect width="14" height="14" fill="white"/>
</clipPath>
</defs>
</svg>
