<svg width="24" height="24" viewBox="0 0 24 24" fill="none" xmlns="http://www.w3.org/2000/svg">
<g clip-path="url(#clip0_1_62)">
<path fill-rule="evenodd" clip-rule="evenodd" d="M22.63 9.50004C22.22 9.18004 20.13 9.50004 19.56 9.01004C19.16 8.64004 19.1 8.01004 18.98 7.09004C18.9526 6.24851 18.7337 5.4243 18.34 4.68004C17.7732 3.66508 16.9872 2.78927 16.0392 2.11635C15.0912 1.44344 14.0052 0.99034 12.86 0.790039H7.86004C5.98292 0.805829 4.18776 1.56125 2.86414 2.89236C1.54052 4.22347 0.795238 6.02286 0.790039 7.90004V16.2C0.795317 18.0815 1.54504 19.8843 2.87541 21.2147C4.20578 22.545 6.00862 23.2948 7.89004 23.3H16.05C17.9316 23.2922 19.7339 22.5419 21.0653 21.2124C22.3967 19.8829 23.1495 18.0816 23.16 16.2V10.45C23.06 9.76004 23 9.78004 22.63 9.50004Z" stroke="#DDCC7B" stroke-width="1.5" stroke-linecap="round" stroke-linejoin="round"/>
<path fill-rule="evenodd" clip-rule="evenodd" d="M6.18994 7.79002C6.19258 8.22324 6.36653 8.63782 6.67381 8.94322C6.98108 9.24862 7.39671 9.42003 7.82994 9.42002H11.9999C12.2254 9.43767 12.4521 9.40849 12.6657 9.33433C12.8794 9.26016 13.0754 9.14262 13.2414 8.98907C13.4074 8.83552 13.5399 8.64929 13.6305 8.44208C13.7211 8.23488 13.7679 8.01117 13.7679 7.78502C13.7679 7.55887 13.7211 7.33516 13.6305 7.12795C13.5399 6.92075 13.4074 6.73452 13.2414 6.58097C13.0754 6.42742 12.8794 6.30988 12.6657 6.23571C12.4521 6.16155 12.2254 6.13237 11.9999 6.15002H7.82994C7.39499 6.15002 6.97785 6.3228 6.67029 6.63036C6.36273 6.93792 6.18994 7.35506 6.18994 7.79002V7.79002Z" stroke="#DDCC7B" stroke-width="1.5" stroke-linecap="round" stroke-linejoin="round"/>
<path fill-rule="evenodd" clip-rule="evenodd" d="M6.18994 16.2101C6.18994 16.645 6.36273 17.0622 6.67029 17.3697C6.97785 17.6773 7.39499 17.8501 7.82994 17.8501H16.1599C16.5715 17.8179 16.9557 17.6316 17.236 17.3286C17.5163 17.0255 17.672 16.6279 17.672 16.2151C17.672 15.8023 17.5163 15.4047 17.236 15.1016C16.9557 14.7985 16.5715 14.6123 16.1599 14.5801H7.82994C7.39671 14.5801 6.98108 14.7515 6.67381 15.0569C6.36653 15.3623 6.19258 15.7769 6.18994 16.2101V16.2101Z" stroke="#DDCC7B" stroke-width="1.5" stroke-linecap="round" stroke-linejoin="round"/>
</g>
<defs>
<clipPath id="clip0_1_62">
<rect width="24" height="24" fill="white"/>
</clipPath>
</defs>
</svg>
