<svg width="24" height="24" viewBox="0 0 24 24" fill="none" xmlns="http://www.w3.org/2000/svg">
<g clip-path="url(#clip0_1_72)">
<path d="M21 5H7C5.89543 5 5 5.89543 5 7V21C5 22.1046 5.89543 23 7 23H21C22.1046 23 23 22.1046 23 21V7C23 5.89543 22.1046 5 21 5Z" stroke="#DDCC7B" stroke-width="1.5" stroke-miterlimit="10" stroke-linecap="round" stroke-linejoin="round"/>
<path d="M19 5V3C19 2.46957 18.7893 1.96086 18.4142 1.58579C18.0391 1.21071 17.5304 1 17 1H3C2.46957 1 1.96086 1.21071 1.58579 1.58579C1.21071 1.96086 1 2.46957 1 3V17C1 17.5304 1.21071 18.0391 1.58579 18.4142C1.96086 18.7893 2.46957 19 3 19H5" stroke="#DDCC7B" stroke-width="1.5" stroke-miterlimit="10" stroke-linecap="round" stroke-linejoin="round"/>
<path d="M9.5 11C10.3284 11 11 10.3284 11 9.5C11 8.67157 10.3284 8 9.5 8C8.67157 8 8 8.67157 8 9.5C8 10.3284 8.67157 11 9.5 11Z" fill="#DDCC7B"/>
<path d="M18.5 11C19.3284 11 20 10.3284 20 9.5C20 8.67157 19.3284 8 18.5 8C17.6716 8 17 8.67157 17 9.5C17 10.3284 17.6716 11 18.5 11Z" fill="#DDCC7B"/>
<path d="M9.5 20C10.3284 20 11 19.3284 11 18.5C11 17.6716 10.3284 17 9.5 17C8.67157 17 8 17.6716 8 18.5C8 19.3284 8.67157 20 9.5 20Z" fill="#DDCC7B"/>
<path d="M18.5 20C19.3284 20 20 19.3284 20 18.5C20 17.6716 19.3284 17 18.5 17C17.6716 17 17 17.6716 17 18.5C17 19.3284 17.6716 20 18.5 20Z" fill="#DDCC7B"/>
<path d="M14 15.5C14.8284 15.5 15.5 14.8284 15.5 14C15.5 13.1716 14.8284 12.5 14 12.5C13.1716 12.5 12.5 13.1716 12.5 14C12.5 14.8284 13.1716 15.5 14 15.5Z" fill="#DDCC7B"/>
</g>
<defs>
<clipPath id="clip0_1_72">
<rect width="24" height="24" fill="white"/>
</clipPath>
</defs>
</svg>
