<svg width="24" height="24" viewBox="0 0 24 24" fill="none" xmlns="http://www.w3.org/2000/svg">
<g clip-path="url(#clip0_1_53)">
<path d="M16.4999 23.25L23.0299 16.185C23.1526 16.0623 23.2289 15.9009 23.2461 15.7283C23.2632 15.5557 23.2201 15.3824 23.1239 15.238L20.4729 11.584C20.4045 11.4813 20.3117 11.397 20.2028 11.3388C20.094 11.2805 19.9724 11.25 19.8489 11.25H13.1489C13.0255 11.25 12.9039 11.2805 12.7951 11.3388C12.6862 11.397 12.5934 11.4813 12.5249 11.584L9.87594 15.238C9.77982 15.3824 9.73666 15.5557 9.7538 15.7283C9.77093 15.9009 9.84731 16.0623 9.96994 16.185L16.4999 23.25Z" stroke="#DDCC7B" stroke-width="1.5" stroke-linecap="round" stroke-linejoin="round"/>
<path d="M9.75598 15.75H23.244" stroke="#DDCC7B" stroke-width="1.5" stroke-linecap="round" stroke-linejoin="round"/>
<path d="M16.5 11.25V23.25" stroke="#DDCC7B" stroke-width="1.5" stroke-linecap="round" stroke-linejoin="round"/>
<path d="M10.5 21.75H6.68198C5.57397 21.7502 4.48805 21.4401 3.54726 20.8548C2.60647 20.2694 1.84842 19.4323 1.35899 18.4383C0.869562 17.4442 0.668324 16.333 0.778078 15.2304C0.887833 14.1278 1.30419 13.0781 1.97998 12.2C5.36798 8.272 6.74998 6.75 6.74998 6.75H12.75C12.75 6.75 13.058 7.203 13.887 8.25" stroke="#DDCC7B" stroke-width="1.5" stroke-linecap="round" stroke-linejoin="round"/>
<path d="M12.75 6.74998L14.571 2.15998C14.6413 2.01922 14.6655 1.85993 14.6402 1.70464C14.615 1.54936 14.5415 1.40595 14.4303 1.2947C14.319 1.18346 14.1756 1.11001 14.0204 1.08476C13.8651 1.05951 13.7058 1.08372 13.565 1.15398L11.665 2.10198C11.5015 2.18359 11.3139 2.20271 11.1373 2.15576C10.9607 2.10881 10.8074 1.99901 10.706 1.84698L10.105 0.938983C10.066 0.880612 10.0132 0.832763 9.95127 0.799671C9.88935 0.76658 9.82022 0.749268 9.75001 0.749268C9.6798 0.749268 9.61068 0.76658 9.54875 0.799671C9.48683 0.832763 9.43403 0.880612 9.39501 0.938983L8.79001 1.84598C8.68866 1.99801 8.53529 2.10781 8.35871 2.15476C8.18213 2.20171 7.99449 2.18259 7.83101 2.10098L5.93101 1.15298C5.79027 1.08395 5.63144 1.06074 5.47684 1.08663C5.32223 1.11252 5.17963 1.1862 5.06906 1.29732C4.95849 1.40844 4.88552 1.55142 4.8604 1.70615C4.83528 1.86088 4.85927 2.01959 4.92901 2.15998L6.75001 6.74998" stroke="#DDCC7B" stroke-width="1.5" stroke-linecap="round" stroke-linejoin="round"/>
</g>
<defs>
<clipPath id="clip0_1_53">
<rect width="24" height="24" fill="white"/>
</clipPath>
</defs>
</svg>
