<svg width="24" height="24" viewBox="0 0 24 24" fill="none" xmlns="http://www.w3.org/2000/svg">
<g clip-path="url(#clip0_1_431)">
<path d="M23 4.99994H20.605C20.846 4.52353 20.9808 4.0005 21 3.46694C20.9653 2.52369 20.5615 1.63181 19.8757 0.983347C19.1898 0.334887 18.2767 -0.0182666 17.333 -6.19843e-05C16.2089 0.0483529 15.1191 0.401095 14.1799 1.02051C13.2406 1.63993 12.4872 2.50277 12 3.51694C11.518 2.50561 10.7703 1.64421 9.83685 1.02477C8.90337 0.405325 7.81914 0.051101 6.7 -6.19843e-05C6.662 -6.19843e-05 6.624 -6.19843e-05 6.586 -6.19843e-05C5.6558 0.00142768 4.7624 0.363518 4.09365 1.01008C3.42489 1.65664 3.03287 2.53732 3 3.46694V3.53294C3.01951 4.04348 3.14878 4.54383 3.379 4.99994H1C0.734784 4.99994 0.48043 5.1053 0.292893 5.29283C0.105357 5.48037 0 5.73472 0 5.99994L0 8.99994C0 9.26515 0.105357 9.51951 0.292893 9.70704C0.48043 9.89458 0.734784 9.99994 1 9.99994H23C23.2652 9.99994 23.5196 9.89458 23.7071 9.70704C23.8946 9.51951 24 9.26515 24 8.99994V5.99994C24 5.73472 23.8946 5.48037 23.7071 5.29283C23.5196 5.1053 23.2652 4.99994 23 4.99994ZM17.364 1.99994C17.7724 1.98934 18.1695 2.1354 18.4737 2.40818C18.7779 2.68095 18.9662 3.05976 19 3.46694C18.9858 3.87626 18.8141 4.26427 18.5206 4.54994C18.2271 4.83561 17.8346 4.99683 17.425 4.99994H13.478C14.1 3.74094 15.337 1.99994 17.364 1.99994ZM5 3.49994C5.0256 3.09073 5.20732 2.70696 5.50765 2.42784C5.80799 2.14872 6.20401 1.99555 6.614 1.99994C8.683 2.00794 9.895 3.73094 10.524 4.99994H6.624C6.21339 5.00303 5.81701 4.8497 5.51537 4.57109C5.21373 4.29248 5.02946 3.9095 5 3.49994Z" fill="#1E60E1"/>
<path d="M14 12V24H19C19.7956 24 20.5587 23.6839 21.1213 23.1213C21.6839 22.5587 22 21.7956 22 21V12H14Z" fill="#1E60E1"/>
<path d="M10 12H2V21C2 21.7956 2.31607 22.5587 2.87868 23.1213C3.44129 23.6839 4.20435 24 5 24H10V12Z" fill="#1E60E1"/>
</g>
<defs>
<clipPath id="clip0_1_431">
<rect width="24" height="24" fill="white"/>
</clipPath>
</defs>
</svg>
