<svg width="29" height="29" viewBox="0 0 29 29" fill="none" xmlns="http://www.w3.org/2000/svg">
<g clip-path="url(#clip0_1_172)">
<path d="M14.9602 14.4693C15.0018 14.5835 15.0871 14.6765 15.1972 14.7279C15.3074 14.7793 15.4335 14.7848 15.5477 14.7432L22.8695 12.0783C23.2688 11.9322 23.5939 11.6337 23.7736 11.2484C23.9533 10.863 23.973 10.4221 23.8282 10.0222L23.2012 8.29945C23.0553 7.89997 22.7568 7.57467 22.3714 7.39493C21.9859 7.21519 21.5449 7.19568 21.1451 7.34069L13.8233 10.0056C13.7091 10.0472 13.6161 10.1324 13.5647 10.2426C13.5133 10.3528 13.5078 10.4788 13.5494 10.593L14.9602 14.4693Z" fill="white"/>
<path d="M7.14917 17.8002L13.3942 15.5272C13.5084 15.4856 13.6015 15.4004 13.6528 15.2902C13.7042 15.18 13.7097 15.054 13.6681 14.9398L12.2573 11.0635C12.2157 10.9493 12.1305 10.8563 12.0203 10.8049C11.9102 10.7535 11.7841 10.748 11.6699 10.7896L3.9174 13.6113C3.51791 13.7572 3.19261 14.0556 3.01287 14.441C2.83313 14.8265 2.81362 15.2675 2.95863 15.6673L3.58567 17.3901C3.73179 17.7894 4.03023 18.1146 4.41562 18.2943C4.80101 18.474 5.24192 18.4936 5.64175 18.3489L7.14917 17.8002Z" fill="white"/>
<path d="M14.4519 17.0931C14.4104 16.9789 14.3251 16.8859 14.2149 16.8345C14.1048 16.7831 13.9787 16.7776 13.8645 16.8192L6.75805 19.4057C6.64383 19.4473 6.5508 19.5326 6.49942 19.6427C6.44805 19.7529 6.44255 19.879 6.48412 19.9932L8.91389 26.6689C9.06001 27.0683 9.35845 27.3934 9.74384 27.5731C10.1292 27.7528 10.5701 27.7724 10.97 27.6277L16.9997 25.4331C17.1139 25.3915 17.2069 25.3062 17.2583 25.1961C17.3097 25.0859 17.3152 24.9598 17.2736 24.8456L14.4519 17.0931Z" fill="white"/>
<path d="M16.0179 16.0354C15.9037 16.077 15.8107 16.1622 15.7593 16.2724C15.7079 16.3825 15.7024 16.5086 15.744 16.6228L18.5657 24.3753C18.6072 24.4895 18.6925 24.5826 18.8027 24.6339C18.9128 24.6853 19.0389 24.6908 19.1531 24.6492L24.7521 22.6114C25.1515 22.4652 25.4766 22.1668 25.6563 21.7814C25.836 21.396 25.8556 20.9551 25.7109 20.5553L23.2811 13.8795C23.2396 13.7653 23.1543 13.6723 23.0441 13.6209C22.934 13.5695 22.8079 13.564 22.6937 13.6056L16.0179 16.0354Z" fill="white"/>
<path d="M13.3378 9.89657C13.4805 9.96283 13.6378 9.99125 13.7947 9.97909C13.9516 9.96693 14.1026 9.91461 14.2334 9.82716C15.1618 9.20732 17.3743 7.65578 17.851 6.63361C18.1545 5.98152 18.1865 5.23557 17.94 4.55986C17.6936 3.88414 17.1887 3.33402 16.5366 3.03052C15.8846 2.72701 15.1386 2.69498 14.4629 2.94147C13.7872 3.18795 13.2371 3.69277 12.9336 4.34486C12.5188 5.23427 12.6243 7.45904 12.8125 9.16886C12.8337 9.32394 12.8926 9.47143 12.9843 9.59833C13.0759 9.72524 13.1973 9.82766 13.3378 9.89657ZM14.5975 5.11861C14.6443 5.01139 14.7121 4.91463 14.7969 4.83402C14.8817 4.75341 14.9818 4.69058 15.0912 4.64923C15.2007 4.60787 15.3173 4.58883 15.4342 4.59322C15.5512 4.59761 15.666 4.62535 15.7721 4.67479C15.8781 4.72424 15.9732 4.7944 16.0517 4.88114C16.1302 4.96789 16.1906 5.06946 16.2293 5.17989C16.2679 5.29031 16.2841 5.40736 16.2769 5.52414C16.2696 5.64092 16.2391 5.75507 16.1871 5.85987C15.7012 6.44076 15.1375 6.95187 14.5119 7.37876C14.4356 6.62505 14.4644 5.86439 14.5975 5.11861Z" fill="white"/>
<path d="M11.9025 9.49609C10.9504 8.07016 9.60077 6.29724 8.71278 5.88102C8.0612 5.5768 7.31547 5.54389 6.63962 5.78951C5.96378 6.03513 5.41319 6.53917 5.10898 7.19074C4.80476 7.84232 4.77185 8.58805 5.01747 9.2639C5.26309 9.93974 5.76713 10.4903 6.4187 10.7945C7.43914 11.2718 10.1313 11.0382 11.2427 10.9156C11.3991 10.8985 11.5485 10.8415 11.6764 10.75C11.8044 10.6585 11.9067 10.5356 11.9734 10.3931C12.0363 10.2493 12.0627 10.0922 12.0503 9.93571C12.0379 9.77925 11.9872 9.62824 11.9025 9.49609ZM7.19425 9.13292C7.08989 9.0843 6.99613 9.01561 6.91832 8.93076C6.84051 8.84591 6.78018 8.74656 6.74076 8.63839C6.70135 8.53022 6.68362 8.41535 6.6886 8.30033C6.69358 8.18532 6.72116 8.07241 6.76978 7.96805C6.8184 7.86369 6.88709 7.76993 6.97194 7.69212C7.05679 7.61431 7.15614 7.55398 7.2643 7.51457C7.48276 7.43496 7.72389 7.4454 7.93465 7.54359C8.51628 8.02902 9.02732 8.59326 9.45299 9.21996C8.69968 9.29597 7.93946 9.26667 7.19425 9.13292Z" fill="white"/>
</g>
<defs>
<clipPath id="clip0_1_172">
<rect width="22" height="22" fill="white" transform="translate(0 8.2085) rotate(-20)"/>
</clipPath>
</defs>
</svg>
