<svg width="20" height="20" viewBox="0 0 20 20" fill="none" xmlns="http://www.w3.org/2000/svg">
<g clip-path="url(#clip0_1_221)">
<path d="M7.6 0C3.4484 0 0 2.9968 0 6.7624C0 8.5844 0.8172 10.236 2.1252 11.45C1.9328 12.0172 1.5252 12.4688 1.0876 12.8252C0.8436 13.0236 0.6064 13.1936 0.4124 13.3624C0.3156 13.4468 0.2264 13.522 0.15 13.6376C0.0736 13.7532 -0.0032 13.9532 0.05 14.15L0.1 14.3L0.2376 14.3876C0.6532 14.6236 1.1576 14.6624 1.6876 14.6248C2.2172 14.5876 2.7892 14.4548 3.35 14.3C4.1236 14.0876 4.786 13.8344 5.3376 13.6124C6.4376 16.1564 9.1984 17.9252 12.4 17.9252C12.9548 17.9252 13.4828 17.8372 13.9752 17.7624C14.5328 18.0156 15.5312 18.4328 16.6124 18.7252C17.736 19.0296 18.8844 19.2564 19.7124 18.7876L19.8624 18.7L19.9 18.55C19.9532 18.3548 19.8876 18.1672 19.8124 18.05C19.743 17.9428 19.6589 17.846 19.5624 17.7624C19.372 17.5892 19.1296 17.4144 18.8876 17.2124C18.4516 16.85 18.042 16.3936 17.8376 15.8376C19.1408 14.6236 19.9624 12.9796 19.9624 11.1624C19.9624 8.1952 17.8 5.664 14.8376 4.7624C13.8828 1.988 10.9828 0 7.6 0ZM7.6 0.8C11.3688 0.8 14.3624 3.484 14.3624 6.7624C14.3624 10.0376 11.3312 12.7252 7.5624 12.7252C7.022 12.7252 6.4904 12.686 6.0124 12.5752L5.8876 12.5376L5.7624 12.5876C5.7156 12.6076 5.6172 12.6516 5.5624 12.6748C5.5532 12.678 5.5344 12.672 5.5248 12.6748C5.43086 12.6816 5.34239 12.7216 5.2752 12.7876C4.7092 13.0204 3.964 13.3108 3.1376 13.5376C2.608 13.6828 2.0736 13.792 1.6248 13.8248C1.4264 13.8392 1.3436 13.7796 1.1876 13.7624C1.3156 13.6624 1.4236 13.5828 1.5876 13.45C2.1204 13.0156 2.7764 12.3876 2.9876 11.45L3.0376 11.2124L2.8624 11.05C1.5828 9.958 0.8 8.4376 0.8 6.7624C0.8 3.488 3.8312 0.8 7.6 0.8ZM15.0624 5.6752C15.1376 5.7032 15.2144 5.7312 15.2876 5.7624C15.2327 5.82959 15.2018 5.91324 15.2 6C15.2 6.22 15.38 6.4 15.6 6.4C15.784 6.4 15.928 6.2688 15.9752 6.1C16.8624 6.5908 17.6032 7.2548 18.15 8.0376C18.1031 8.01491 18.0521 8.00211 18 8C17.78 8 17.6 8.18 17.6 8.4C17.6024 8.50247 17.6439 8.60013 17.7161 8.67291C17.7883 8.74568 17.8856 8.78803 17.9881 8.79126C18.0905 8.79449 18.1903 8.75834 18.2669 8.69026C18.3435 8.62217 18.3912 8.52732 18.4 8.4252C18.584 8.7372 18.744 9.072 18.8624 9.4124C18.8296 9.4704 18.8 9.5296 18.8 9.6C18.8 9.75 18.8908 9.8688 19.0124 9.9376C19.108 10.3344 19.1624 10.742 19.1624 11.1624C19.1624 11.3124 19.15 11.464 19.1376 11.6124C19.0444 11.6263 18.9592 11.6729 18.8974 11.744C18.8355 11.815 18.801 11.9058 18.8 12C18.8 12.156 18.8952 12.284 19.0252 12.35C18.75 13.55 18.0704 14.6236 17.1 15.45L16.9124 15.6124L16.9752 15.8624C17.178 16.6532 17.6764 17.2156 18.15 17.6376C18.1031 17.6149 18.0521 17.6021 18 17.6C17.78 17.6 17.6 17.78 17.6 18C17.6 18.0408 17.614 18.0752 17.6252 18.1124C17.3553 18.0759 17.088 18.0216 16.8252 17.95C15.9688 17.7188 15.1344 17.3892 14.5748 17.15C14.7048 17.0844 14.8 16.9564 14.8 16.8C14.8 16.58 14.62 16.4 14.4 16.4C14.18 16.4 14 16.58 14 16.8C14 16.8548 14.0172 16.9016 14.0376 16.95L13.9748 16.9624C13.458 17.0424 12.922 17.1252 12.4 17.1252C12.342 17.1252 12.2828 17.1264 12.2248 17.1252C12.2781 17.0892 12.3219 17.0408 12.3525 16.9842C12.383 16.9275 12.3993 16.8643 12.4 16.8C12.4 16.58 12.22 16.4 12 16.4C11.78 16.4 11.6 16.58 11.6 16.8C11.6 16.9108 11.6408 17.016 11.7124 17.0876C11.1258 17.0385 10.5469 16.921 9.9876 16.7376C9.97371 16.6444 9.92706 16.5592 9.85602 16.4974C9.78498 16.4355 9.69421 16.401 9.6 16.4C9.50912 16.3998 9.4209 16.4307 9.35 16.4876C9.02977 16.3486 8.72049 16.1856 8.4248 16C8.5269 15.9912 8.62175 15.9436 8.68985 15.867C8.75795 15.7905 8.79413 15.6907 8.79095 15.5883C8.78778 15.4858 8.74549 15.3885 8.67278 15.3163C8.60006 15.2441 8.50245 15.2025 8.4 15.2C8.18 15.2 8.0004 15.38 8.0004 15.6C8.0004 15.6452 8.0112 15.684 8.0256 15.7252C7.62449 15.4267 7.25938 15.0827 6.9376 14.7C7.0084 14.7608 7.1004 14.8 7.2004 14.8C7.4204 14.8 7.6004 14.62 7.6004 14.4C7.6004 14.18 7.4204 14 7.2004 14C6.9804 14 6.8004 14.18 6.8004 14.4C6.8004 14.4908 6.8364 14.5704 6.888 14.6376C6.6096 14.2968 6.366 13.9376 6.1752 13.55C6.23678 13.5185 6.28873 13.4709 6.3256 13.4124C6.7348 13.4764 7.1504 13.5252 7.5628 13.5252C7.7504 13.5252 7.9412 13.5124 8.1256 13.5C8.1976 13.5656 8.2956 13.6 8.4004 13.6C8.46155 13.5993 8.52169 13.5842 8.57595 13.556C8.63021 13.5278 8.67709 13.4872 8.7128 13.4376C9.3224 13.3548 9.9084 13.2172 10.4628 13.0124C10.43 13.0704 10.4004 13.1296 10.4004 13.2C10.4004 13.42 10.5804 13.6 10.8004 13.6C11.0204 13.6 11.2004 13.42 11.2004 13.2C11.2004 13.016 11.0692 12.872 10.9004 12.8248C11.2204 12.6844 11.5316 12.528 11.8256 12.35C11.88 12.378 11.9348 12.4 12.0004 12.4C12.2204 12.4 12.4004 12.22 12.4004 12C12.4004 11.9908 12.388 11.984 12.388 11.9748C12.7192 11.7312 13.032 11.464 13.3128 11.1748C13.4504 11.1328 13.5456 11.0172 13.5756 10.8748C13.8268 10.586 14.066 10.2876 14.2628 9.9628C14.3084 9.9796 14.3488 10 14.4004 10C14.6204 10 14.8004 9.82 14.8004 9.6C14.8004 9.4592 14.7224 9.3468 14.6128 9.2748C14.9731 8.48623 15.1606 7.62976 15.1628 6.7628C15.1628 6.392 15.1268 6.028 15.0628 5.6748L15.0624 5.6752ZM16.8 6.8C16.58 6.8 16.4 6.98 16.4 7.2C16.4 7.42 16.58 7.6 16.8 7.6C17.02 7.6 17.2 7.42 17.2 7.2C17.2 6.98 17.02 6.8 16.8 6.8ZM15.6 8C15.38 8 15.2 8.18 15.2 8.4C15.2 8.62 15.38 8.8 15.6 8.8C15.82 8.8 16 8.62 16 8.4C16 8.18 15.82 8 15.6 8ZM16.8 9.2C16.58 9.2 16.4 9.38 16.4 9.6C16.4 9.82 16.58 10 16.8 10C17.02 10 17.2 9.82 17.2 9.6C17.2 9.38 17.02 9.2 16.8 9.2ZM15.6 10.4C15.38 10.4 15.2 10.58 15.2 10.8C15.2 11.02 15.38 11.2 15.6 11.2C15.82 11.2 16 11.02 16 10.8C16 10.58 15.82 10.4 15.6 10.4ZM18 10.4C17.78 10.4 17.6 10.58 17.6 10.8C17.6 11.02 17.78 11.2 18 11.2C18.22 11.2 18.4 11.02 18.4 10.8C18.4 10.58 18.22 10.4 18 10.4ZM14.4 11.6C14.18 11.6 14 11.78 14 12C14 12.22 14.18 12.4 14.4 12.4C14.62 12.4 14.8 12.22 14.8 12C14.8 11.78 14.62 11.6 14.4 11.6ZM16.8 11.6C16.58 11.6 16.4 11.78 16.4 12C16.4 12.22 16.58 12.4 16.8 12.4C17.02 12.4 17.2 12.22 17.2 12C17.2 11.78 17.02 11.6 16.8 11.6ZM13.2 12.8C12.98 12.8 12.8 12.98 12.8 13.2C12.8 13.42 12.98 13.6 13.2 13.6C13.42 13.6 13.6 13.42 13.6 13.2C13.6 12.98 13.42 12.8 13.2 12.8ZM15.6 12.8C15.38 12.8 15.2 12.98 15.2 13.2C15.2 13.42 15.38 13.6 15.6 13.6C15.82 13.6 16 13.42 16 13.2C16 12.98 15.82 12.8 15.6 12.8ZM18 12.8C17.78 12.8 17.6 12.98 17.6 13.2C17.6 13.42 17.78 13.6 18 13.6C18.22 13.6 18.4 13.42 18.4 13.2C18.4 12.98 18.22 12.8 18 12.8ZM9.6 14C9.38 14 9.2 14.18 9.2 14.4C9.2 14.62 9.38 14.8 9.6 14.8C9.82 14.8 10 14.62 10 14.4C10 14.18 9.82 14 9.6 14ZM12 14C11.78 14 11.6 14.18 11.6 14.4C11.6 14.62 11.78 14.8 12 14.8C12.22 14.8 12.4 14.62 12.4 14.4C12.4 14.18 12.22 14 12 14ZM14.4 14C14.18 14 14 14.18 14 14.4C14 14.62 14.18 14.8 14.4 14.8C14.62 14.8 14.8 14.62 14.8 14.4C14.8 14.18 14.62 14 14.4 14ZM16.8 14C16.58 14 16.4 14.18 16.4 14.4C16.4 14.62 16.58 14.8 16.8 14.8C17.02 14.8 17.2 14.62 17.2 14.4C17.2 14.18 17.02 14 16.8 14ZM10.8 15.2C10.58 15.2 10.4 15.38 10.4 15.6C10.4 15.82 10.58 16 10.8 16C11.02 16 11.2 15.82 11.2 15.6C11.2 15.38 11.02 15.2 10.8 15.2ZM13.2 15.2C12.98 15.2 12.8 15.38 12.8 15.6C12.8 15.82 12.98 16 13.2 16C13.42 16 13.6 15.82 13.6 15.6C13.6 15.38 13.42 15.2 13.2 15.2ZM15.6 15.2C15.38 15.2 15.2 15.38 15.2 15.6C15.2 15.82 15.38 16 15.6 16C15.82 16 16 15.82 16 15.6C16 15.38 15.82 15.2 15.6 15.2ZM16.8 16.4C16.58 16.4 16.4 16.58 16.4 16.8C16.4 17.02 16.58 17.2 16.8 17.2C17.02 17.2 17.2 17.02 17.2 16.8C17.2 16.58 17.02 16.4 16.8 16.4ZM18.3252 17.7752C18.342 17.7892 18.358 17.8112 18.3748 17.8248C18.5408 17.9624 18.6592 18.0468 18.7876 18.15C18.6532 18.1624 18.5064 18.164 18.35 18.1624C18.3752 18.1108 18.4 18.0608 18.4 18C18.399 17.9189 18.3727 17.8402 18.3248 17.7748L18.3252 17.7752Z" fill="#111111"/>
</g>
<defs>
<clipPath id="clip0_1_221">
<rect width="20" height="20" fill="white"/>
</clipPath>
</defs>
</svg>
