<svg width="12" height="12" viewBox="0 0 12 12" fill="none" xmlns="http://www.w3.org/2000/svg">
<path d="M10.707 1.29303C10.5195 1.10556 10.2652 1.00024 10 1.00024C9.73486 1.00024 9.48055 1.10556 9.29302 1.29303L6.00002 4.58603L2.70702 1.29303C2.51842 1.11087 2.26582 1.01008 2.00362 1.01236C1.74142 1.01464 1.49061 1.1198 1.3052 1.30521C1.11979 1.49062 1.01462 1.74143 1.01235 2.00363C1.01007 2.26583 1.11086 2.51843 1.29302 2.70703L4.58602 6.00003L1.29302 9.29303C1.19751 9.38528 1.12133 9.49562 1.06892 9.61763C1.01651 9.73963 0.988924 9.87085 0.98777 10.0036C0.986616 10.1364 1.01192 10.2681 1.0622 10.391C1.11248 10.5139 1.18673 10.6255 1.28063 10.7194C1.37452 10.8133 1.48617 10.8876 1.60907 10.9379C1.73196 10.9881 1.86364 11.0134 1.99642 11.0123C2.1292 11.0111 2.26042 10.9835 2.38242 10.9311C2.50443 10.8787 2.61477 10.8025 2.70702 10.707L6.00002 7.41403L9.29302 10.707C9.48162 10.8892 9.73422 10.99 9.99642 10.9877C10.2586 10.9854 10.5094 10.8803 10.6948 10.6948C10.8802 10.5094 10.9854 10.2586 10.9877 9.99643C10.99 9.73423 10.8892 9.48163 10.707 9.29303L7.41402 6.00003L10.707 2.70703C10.8945 2.5195 10.9998 2.26519 10.9998 2.00003C10.9998 1.73487 10.8945 1.48056 10.707 1.29303Z" fill="#555555"/>
</svg>
