<svg width="18" height="18" viewBox="0 0 18 18" fill="none" xmlns="http://www.w3.org/2000/svg">
<g clip-path="url(#clip0_1_234)">
<path d="M17.5245 14.8245L15.2745 10.9395C15.2576 10.9103 15.2332 10.8861 15.2038 10.8697C15.1744 10.8532 15.1411 10.8449 15.1074 10.8458C15.0737 10.8466 15.0409 10.8565 15.0123 10.8745C14.9838 10.8924 14.9606 10.9177 14.9452 10.9477C14.6435 11.5415 14.1786 12.0368 13.605 12.3753C13.0314 12.7138 12.3731 12.8815 11.7075 12.8587C11.6808 12.8577 11.6542 12.8623 11.6295 12.8724C11.6048 12.8825 11.5825 12.8978 11.5642 12.9172C11.3508 13.1406 11.1078 13.3336 10.842 13.491C10.7999 13.5166 10.7695 13.5578 10.7575 13.6056C10.7454 13.6535 10.7526 13.7041 10.7775 13.7467L12.984 17.4802C13.0565 17.6024 13.1623 17.7014 13.2889 17.7658C13.4156 17.8302 13.5579 17.8573 13.6994 17.8439C13.8408 17.8306 13.9755 17.7773 14.0879 17.6903C14.2002 17.6034 14.2856 17.4863 14.334 17.3527L14.958 15.6367L16.752 15.9405C16.8924 15.9641 17.0367 15.9473 17.1679 15.8919C17.2991 15.8366 17.4119 15.7451 17.493 15.628C17.5741 15.511 17.6202 15.3732 17.6259 15.2309C17.6316 15.0886 17.5967 14.9476 17.5252 14.8245H17.5245Z" fill="white"/>
<path d="M6.43723 12.918C6.41892 12.8986 6.39666 12.8833 6.37195 12.8732C6.34724 12.8631 6.32066 12.8584 6.29398 12.8595C5.62844 12.8823 4.97019 12.7148 4.39654 12.3766C3.82289 12.0383 3.35766 11.5434 3.05548 10.95C3.04007 10.9201 3.01691 10.8948 2.98842 10.8769C2.95993 10.8589 2.92714 10.849 2.89348 10.848C2.85971 10.8469 2.82627 10.855 2.79679 10.8716C2.76731 10.8881 2.74291 10.9124 2.72623 10.9418L0.476235 14.8275C0.404909 14.9507 0.370131 15.0917 0.375966 15.234C0.381801 15.3762 0.428007 15.5139 0.509184 15.6308C0.590362 15.7478 0.703156 15.8393 0.834382 15.8945C0.965609 15.9497 1.10985 15.9665 1.25023 15.9428L3.04348 15.639L3.66823 17.3558C3.71688 17.4892 3.80242 17.6061 3.91489 17.6928C4.02737 17.7795 4.16216 17.8326 4.30359 17.8457C4.44502 17.8588 4.58726 17.8315 4.71378 17.7669C4.84029 17.7024 4.94587 17.6032 5.01823 17.481L7.22398 13.749C7.24888 13.7064 7.25607 13.6558 7.24401 13.6079C7.23195 13.5601 7.2016 13.5189 7.15948 13.4933C6.89379 13.3351 6.65082 13.1416 6.43723 12.918Z" fill="white"/>
<path d="M10.5 7.65454C10.6989 7.65454 10.8897 7.57552 11.0303 7.43487C11.171 7.29422 11.25 7.10345 11.25 6.90454V6.15454C11.25 5.95563 11.171 5.76486 11.0303 5.62421C10.8897 5.48356 10.6989 5.40454 10.5 5.40454C10.3011 5.40454 10.1103 5.48356 9.96967 5.62421C9.82902 5.76486 9.75 5.95563 9.75 6.15454V6.90454C9.75 7.10345 9.82902 7.29422 9.96967 7.43487C10.1103 7.57552 10.3011 7.65454 10.5 7.65454Z" fill="white"/>
<path d="M11.1097 11.6251C11.5248 11.7565 11.9679 11.7715 12.3908 11.6683C12.8138 11.5651 13.2002 11.3477 13.5081 11.0399C13.8159 10.7321 14.0333 10.3456 14.1365 9.92268C14.2396 9.49975 14.2247 9.0566 14.0932 8.64159C14.4795 8.44103 14.8033 8.13826 15.0293 7.76629C15.2553 7.39433 15.3748 6.96745 15.3748 6.53221C15.3748 6.09698 15.2553 5.6701 15.0293 5.29813C14.8033 4.92616 14.4795 4.62339 14.0932 4.42284C14.2247 4.00782 14.2396 3.56467 14.1365 3.14174C14.0333 2.71881 13.8159 2.33235 13.5081 2.02452C13.2002 1.71669 12.8138 1.49932 12.3908 1.39613C11.9679 1.29293 11.5248 1.30788 11.1097 1.43934C10.9091 1.0529 10.6063 0.72897 10.2342 0.502881C9.86206 0.276792 9.43502 0.157227 8.99962 0.157227C8.56422 0.157227 8.13717 0.276792 7.76507 0.502881C7.39297 0.72897 7.0901 1.0529 6.88949 1.43934C6.47471 1.30811 6.03187 1.29325 5.60922 1.39637C5.18658 1.49949 4.80034 1.71663 4.4926 2.02414C4.18486 2.33164 3.96743 2.71772 3.86399 3.14028C3.76055 3.56285 3.77508 4.00571 3.90599 4.42059C3.51972 4.62114 3.19594 4.92391 2.96995 5.29588C2.74396 5.66785 2.62445 6.09473 2.62445 6.52996C2.62445 6.9652 2.74396 7.39208 2.96995 7.76404C3.19594 8.13601 3.51972 8.43878 3.90599 8.63934C3.77391 9.05456 3.75852 9.49811 3.86149 9.9215C3.96447 10.3449 4.18185 10.7318 4.48988 11.04C4.79791 11.3482 5.18473 11.5658 5.60806 11.6689C6.0314 11.7721 6.47495 11.757 6.89024 11.6251C7.09073 12.0116 7.39352 12.3355 7.76557 12.5616C8.13761 12.7878 8.56462 12.9074 8.99999 12.9074C9.43537 12.9074 9.86238 12.7878 10.2344 12.5616C10.6065 12.3355 10.9093 12.0116 11.1097 11.6251ZM6.74999 8.40459C6.65054 8.40459 6.55515 8.36508 6.48483 8.29475C6.4145 8.22443 6.37499 8.12904 6.37499 8.02959C6.37499 7.93013 6.4145 7.83475 6.48483 7.76442C6.55515 7.6941 6.65054 7.65459 6.74999 7.65459H7.12499V5.40459L6.64499 5.76459C6.56543 5.82426 6.46542 5.84988 6.36696 5.83582C6.2685 5.82175 6.17967 5.76915 6.11999 5.68959C6.06032 5.61002 6.0347 5.51001 6.04876 5.41155C6.06283 5.3131 6.11543 5.22426 6.19499 5.16459L6.67499 4.80459C6.78636 4.72032 6.91917 4.66904 7.05826 4.65657C7.19736 4.64411 7.33717 4.67097 7.46174 4.73409C7.58602 4.79654 7.69049 4.89232 7.76347 5.01072C7.83645 5.12913 7.87506 5.2655 7.87499 5.40459V7.65459H8.24999C8.34945 7.65459 8.44483 7.6941 8.51516 7.76442C8.58549 7.83475 8.62499 7.93013 8.62499 8.02959C8.62499 8.12904 8.58549 8.22443 8.51516 8.29475C8.44483 8.36508 8.34945 8.40459 8.24999 8.40459H6.74999ZM8.99999 6.15459C8.99999 5.75676 9.15803 5.37523 9.43933 5.09393C9.72064 4.81262 10.1022 4.65459 10.5 4.65459C10.8978 4.65459 11.2793 4.81262 11.5607 5.09393C11.842 5.37523 12 5.75676 12 6.15459V6.90459C12 7.30241 11.842 7.68394 11.5607 7.96525C11.2793 8.24655 10.8978 8.40459 10.5 8.40459C10.1022 8.40459 9.72064 8.24655 9.43933 7.96525C9.15803 7.68394 8.99999 7.30241 8.99999 6.90459V6.15459Z" fill="white"/>
</g>
<defs>
<clipPath id="clip0_1_234">
<rect width="18" height="18" fill="white"/>
</clipPath>
</defs>
</svg>
