<svg width="40" height="40" viewBox="0 0 40 40" fill="none" xmlns="http://www.w3.org/2000/svg">
<rect width="40" height="40" rx="20" fill="#F2F3F5"/>
<path d="M28.5611 28.4476L25.0795 24.9641C26.1396 23.3763 26.5715 21.4508 26.2913 19.562C26.011 17.6733 25.0386 15.9564 23.5633 14.7452C22.0879 13.5341 20.215 12.9153 18.3089 13.0093C16.4028 13.1033 14.5998 13.9033 13.2506 15.2538C11.9014 16.6042 11.1025 18.4085 11.0092 20.3156C10.9159 22.2228 11.535 24.0965 12.746 25.5722C13.957 27.048 15.6733 28.0203 17.5611 28.3C19.4489 28.5798 21.3733 28.1469 22.9598 27.0857L26.4414 30.5684C26.7249 30.8451 27.1052 31 27.5012 31C27.8973 31 28.2776 30.8451 28.5611 30.5684C28.8421 30.2872 29 29.9057 29 29.508C29 29.1103 28.8421 28.7289 28.5611 28.4476ZM18.6941 15.2589C19.7689 15.2589 20.8195 15.5778 21.7132 16.1753C22.6068 16.7727 23.3034 17.6219 23.7147 18.6154C24.1259 19.6089 24.2336 20.7021 24.0239 21.7568C23.8142 22.8115 23.2967 23.7803 22.5367 24.5407C21.7767 25.3011 20.8084 25.819 19.7543 26.0288C18.7002 26.2386 17.6075 26.1309 16.6146 25.7194C15.6216 25.3078 14.7729 24.6109 14.1758 23.7168C13.5787 22.8227 13.26 21.7715 13.26 20.6961C13.2615 19.2545 13.8346 17.8725 14.8533 16.8532C15.8721 15.8339 17.2534 15.2605 18.6941 15.2589Z" fill="#0C1245"/>
</svg>
