<svg width="18" height="18" viewBox="0 0 18 18" fill="none" xmlns="http://www.w3.org/2000/svg">
<path d="M17.5611 15.4476L14.0795 11.9641C15.1396 10.3763 15.5715 8.45079 15.2913 6.56204C15.011 4.67329 14.0386 2.95637 12.5633 1.74523C11.0879 0.534091 9.21499 -0.0846606 7.3089 0.00933101C5.40281 0.103323 3.59981 0.903337 2.2506 2.25376C0.901397 3.60418 0.102459 5.40845 0.00919252 7.31562C-0.0840737 9.22278 0.535001 11.0965 1.746 12.5722C2.95699 14.048 4.67332 15.0203 6.56114 15.3C8.44895 15.5798 10.3733 15.1469 11.9598 14.0857L15.4414 17.5684C15.7249 17.8451 16.1052 18 16.5012 18C16.8973 18 17.2776 17.8451 17.5611 17.5684C17.8421 17.2872 18 16.9057 18 16.508C18 16.1103 17.8421 15.7289 17.5611 15.4476ZM7.69413 2.25893C8.76891 2.25893 9.81955 2.57782 10.7132 3.17526C11.6068 3.7727 12.3034 4.62187 12.7147 5.61538C13.1259 6.60889 13.2336 7.70212 13.0239 8.75682C12.8142 9.81152 12.2967 10.7803 11.5367 11.5407C10.7767 12.3011 9.80841 12.819 8.75428 13.0288C7.70016 13.2386 6.60753 13.1309 5.61456 12.7194C4.6216 12.3078 3.77289 11.6109 3.17578 10.7168C2.57866 9.82267 2.25996 8.77145 2.25996 7.69608C2.26154 6.25455 2.83458 4.87251 3.85334 3.85319C4.8721 2.83387 6.25338 2.26052 7.69413 2.25893Z" fill="#0C1245"/>
</svg>
