<svg width="16" height="16" viewBox="0 0 16 16" fill="none" xmlns="http://www.w3.org/2000/svg">
<path d="M15 3H11C10.4 3 10 3.4 10 4C10 4.6 10.4 5 11 5H15C15.6 5 16 4.6 16 4C16 3.4 15.6 3 15 3Z" fill="#1E60E1"/>
<path d="M5 1C3.7 1 2.6 1.9 2.2 3C2.1 3 2.1 3 2 3H1C0.4 3 0 3.4 0 4C0 4.6 0.4 5 1 5H2C2.1 5 2.1 5 2.2 5C2.6 6.1 3.7 7 5 7C6.7 7 8 5.7 8 4C8 2.3 6.7 1 5 1Z" fill="#1E60E1"/>
<path d="M1 13H5C5.6 13 6 12.6 6 12C6 11.4 5.6 11 5 11H1C0.4 11 0 11.4 0 12C0 12.6 0.4 13 1 13Z" fill="#1E60E1"/>
<path d="M15 11H14C13.9 11 13.9 11 13.8 11C13.4 9.8 12.3 9 11 9C9.3 9 8 10.3 8 12C8 13.7 9.3 15 11 15C12.3 15 13.4 14.1 13.8 13C13.9 13 13.9 13 14 13H15C15.6 13 16 12.6 16 12C16 11.4 15.6 11 15 11Z" fill="#1E60E1"/>
</svg>
