<svg width="16" height="18" viewBox="0 0 16 18" fill="none" xmlns="http://www.w3.org/2000/svg">
<path d="M13.625 0H2.375C1.97718 0 1.59564 0.158035 1.31434 0.43934C1.03304 0.720644 0.875 1.10218 0.875 1.5V16.5C0.875063 16.7697 0.947833 17.0344 1.08565 17.2662C1.22347 17.498 1.42123 17.6884 1.65813 17.8173C1.89502 17.9461 2.16229 18.0088 2.43178 17.9986C2.70128 17.9884 2.96303 17.9057 3.1895 17.7593L7.898 14.7128C7.92834 14.693 7.96378 14.6824 8 14.6824C8.03622 14.6824 8.07166 14.693 8.102 14.7128L12.8097 17.7585C13.0362 17.9051 13.2979 17.9879 13.5675 17.9983C13.837 18.0086 14.1044 17.9461 14.3414 17.8173C14.5784 17.6884 14.7762 17.4981 14.9141 17.2663C15.052 17.0345 15.1249 16.7697 15.125 16.5V1.5C15.125 1.10218 14.967 0.720644 14.6857 0.43934C14.4044 0.158035 14.0228 0 13.625 0V0ZM10.5958 10.1318C10.6178 10.1823 10.6234 10.2385 10.6117 10.2925C10.6 10.3464 10.5717 10.3953 10.5308 10.4322C10.4899 10.4692 10.4383 10.4924 10.3835 10.4985C10.3287 10.5046 10.2733 10.4933 10.2253 10.4662L8.0915 9.26625C8.06347 9.25041 8.03182 9.24209 7.99963 9.24209C7.96743 9.24209 7.93578 9.25041 7.90775 9.26625L5.77475 10.4662C5.72668 10.4933 5.67132 10.5046 5.61649 10.4985C5.56167 10.4924 5.51014 10.4692 5.4692 10.4322C5.42825 10.3953 5.39995 10.3464 5.3883 10.2925C5.37665 10.2385 5.38223 10.1823 5.40425 10.1318L6.284 8.10675C6.29956 8.07055 6.30338 8.03038 6.2949 7.99189C6.28642 7.95341 6.26608 7.91856 6.23675 7.89225L4.72775 6.549C4.68795 6.51352 4.65987 6.4668 4.64721 6.41501C4.63455 6.36322 4.63791 6.3088 4.65686 6.25897C4.6758 6.20913 4.70943 6.16622 4.75329 6.13592C4.79715 6.10561 4.84919 6.08934 4.9025 6.08925H6.695C6.73168 6.08931 6.76757 6.07862 6.79823 6.05849C6.82889 6.03836 6.85298 6.00968 6.8675 5.976L7.7585 3.909C7.77893 3.86192 7.81267 3.82184 7.85557 3.79368C7.89848 3.76553 7.94868 3.75053 8 3.75053C8.05132 3.75053 8.10152 3.76553 8.14443 3.79368C8.18733 3.82184 8.22107 3.86192 8.2415 3.909L9.1325 5.976C9.14703 6.00968 9.17111 6.03836 9.20177 6.05849C9.23243 6.07862 9.26832 6.08931 9.305 6.08925H11.0975C11.1508 6.08934 11.2028 6.10561 11.2467 6.13592C11.2906 6.16622 11.3242 6.20913 11.3431 6.25897C11.3621 6.3088 11.3655 6.36322 11.3528 6.41501C11.3401 6.4668 11.312 6.51352 11.2723 6.549L9.76325 7.893C9.73392 7.91931 9.71358 7.95416 9.7051 7.99264C9.69662 8.03113 9.70043 8.0713 9.716 8.1075L10.5958 10.1318Z" fill="#F6BF31"/>
</svg>
