<svg width="18" height="18" viewBox="0 0 18 18" fill="none" xmlns="http://www.w3.org/2000/svg">
<g clip-path="url(#clip0_1_228)">
<path d="M14.625 0H3.375C2.97718 0 2.59564 0.158035 2.31434 0.43934C2.03304 0.720644 1.875 1.10218 1.875 1.5V16.5C1.87506 16.7697 1.94783 17.0344 2.08565 17.2662C2.22347 17.498 2.42123 17.6884 2.65813 17.8173C2.89502 17.9461 3.16229 18.0088 3.43178 17.9986C3.70128 17.9884 3.96303 17.9057 4.1895 17.7593L8.898 14.7128C8.92834 14.693 8.96378 14.6824 9 14.6824C9.03622 14.6824 9.07166 14.693 9.102 14.7128L13.8097 17.7585C14.0362 17.9051 14.2979 17.9879 14.5675 17.9983C14.837 18.0086 15.1044 17.9461 15.3414 17.8173C15.5784 17.6884 15.7762 17.4981 15.9141 17.2663C16.052 17.0345 16.1249 16.7697 16.125 16.5V1.5C16.125 1.10218 15.967 0.720644 15.6857 0.43934C15.4044 0.158035 15.0228 0 14.625 0V0ZM11.5958 10.1318C11.6178 10.1823 11.6234 10.2385 11.6117 10.2925C11.6 10.3464 11.5717 10.3953 11.5308 10.4322C11.4899 10.4692 11.4383 10.4924 11.3835 10.4985C11.3287 10.5046 11.2733 10.4933 11.2253 10.4662L9.0915 9.26625C9.06347 9.25041 9.03182 9.24209 8.99963 9.24209C8.96743 9.24209 8.93578 9.25041 8.90775 9.26625L6.77475 10.4662C6.72668 10.4933 6.67132 10.5046 6.61649 10.4985C6.56167 10.4924 6.51014 10.4692 6.4692 10.4322C6.42825 10.3953 6.39995 10.3464 6.3883 10.2925C6.37665 10.2385 6.38223 10.1823 6.40425 10.1318L7.284 8.10675C7.29956 8.07055 7.30338 8.03038 7.2949 7.99189C7.28642 7.95341 7.26608 7.91856 7.23675 7.89225L5.72775 6.549C5.68795 6.51352 5.65987 6.4668 5.64721 6.41501C5.63455 6.36322 5.63791 6.3088 5.65686 6.25897C5.6758 6.20913 5.70943 6.16622 5.75329 6.13592C5.79715 6.10561 5.84919 6.08934 5.9025 6.08925H7.695C7.73168 6.08931 7.76757 6.07862 7.79823 6.05849C7.82889 6.03836 7.85298 6.00968 7.8675 5.976L8.7585 3.909C8.77893 3.86192 8.81267 3.82184 8.85557 3.79368C8.89848 3.76553 8.94868 3.75053 9 3.75053C9.05132 3.75053 9.10152 3.76553 9.14443 3.79368C9.18733 3.82184 9.22107 3.86192 9.2415 3.909L10.1325 5.976C10.147 6.00968 10.1711 6.03836 10.2018 6.05849C10.2324 6.07862 10.2683 6.08931 10.305 6.08925H12.0975C12.1508 6.08934 12.2028 6.10561 12.2467 6.13592C12.2906 6.16622 12.3242 6.20913 12.3431 6.25897C12.3621 6.3088 12.3655 6.36322 12.3528 6.41501C12.3401 6.4668 12.312 6.51352 12.2723 6.549L10.7633 7.893C10.7339 7.91931 10.7136 7.95416 10.7051 7.99264C10.6966 8.03113 10.7004 8.0713 10.716 8.1075L11.5958 10.1318Z" fill="white"/>
</g>
<defs>
<clipPath id="clip0_1_228">
<rect width="18" height="18" fill="white"/>
</clipPath>
</defs>
</svg>
