<svg width="24" height="18" viewBox="0 0 24 18" fill="none" xmlns="http://www.w3.org/2000/svg">
<g clip-path="url(#clip0_1_194)">
<path d="M-6.02405 0H30.0727V18.0484H-6.02405V0Z" fill="#000066"/>
<path d="M-6.02405 0V2.01785L26.0371 18.0484H30.0727V16.0307L-1.98844 0H-6.02405ZM30.0727 0V2.01782L-1.98844 18.0484H-6.02405V16.0306L26.0371 0H30.0727Z" fill="white"/>
<path d="M9.01628 0V18.0484H15.0324V0H9.01628ZM-6.02405 6.01612V12.0322H30.0727V6.01612H-6.02405Z" fill="white"/>
<path d="M-6.02405 7.21935V10.829H30.0727V7.21935H-6.02405ZM10.2195 0V18.0484H13.8291V0H10.2195ZM-6.02405 18.0484L6.00821 12.0322H8.69864L-3.33362 18.0484H-6.02405ZM-6.02405 0L6.00821 6.01612H3.31779L-6.02405 1.34528V0ZM15.35 6.01612L27.3823 0H30.0727L18.0405 6.01612H15.35ZM30.0727 18.0484L18.0405 12.0322H20.7309L30.0727 16.7032V18.0484Z" fill="#CC0000"/>
</g>
<defs>
<clipPath id="clip0_1_194">
<rect width="24" height="18" fill="white"/>
</clipPath>
</defs>
</svg>
