<svg width="19" height="14" viewBox="0 0 19 14" fill="none" xmlns="http://www.w3.org/2000/svg">
<g clip-path="url(#clip0_1_697)">
<path d="M-4.76904 0H23.8076V14.0376H-4.76904V0Z" fill="#000066"/>
<path d="M-4.76904 0V1.56944L20.6127 14.0377H23.8076V12.4683L-1.57419 0H-4.76904ZM23.8076 0V1.56941L-1.57419 14.0376H-4.76904V12.4682L20.6127 0H23.8076Z" fill="white"/>
<path d="M7.13788 0V14.0376H11.9007V0H7.13788ZM-4.76904 4.67921V9.35841H23.8076V4.67921H-4.76904Z" fill="white"/>
<path d="M-4.76904 5.61505V8.42257H23.8076V5.61505H-4.76904ZM8.09046 0V14.0376H10.9481V0H8.09046ZM-4.76904 14.0376L4.7565 9.35841H6.88642L-2.63912 14.0376H-4.76904ZM-4.76904 0L4.7565 4.67921H2.62658L-4.76904 1.04633V0ZM12.1521 4.67921L21.6777 0H23.8076L14.282 4.67921H12.1521ZM23.8076 14.0376L14.282 9.35841H16.412L23.8076 12.9913V14.0376Z" fill="#CC0000"/>
</g>
<defs>
<clipPath id="clip0_1_697">
<rect width="19" height="14" fill="white"/>
</clipPath>
</defs>
</svg>
